<svg width="24" height="24" viewBox="0 0 24 24" fill="none" xmlns="http://www.w3.org/2000/svg">
<path fill-rule="evenodd" clip-rule="evenodd" d="M12 24C18.6274 24 24 18.6274 24 12C24 5.37258 18.6274 0 12 0C5.37258 0 0 5.37258 0 12C0 18.6274 5.37258 24 12 24ZM12.1672 11.3265C11.2298 11.3265 6.4 8.58768 6.4 8.58768V8.16C6.4 7.63008 6.83008 7.2 7.36096 7.2H16.9734C17.5048 7.2 17.9349 7.63008 17.9349 8.16L17.9272 8.64C17.9272 8.64 13.1498 11.3265 12.1672 11.3265ZM17.9272 10.08C17.9272 10.08 13.1949 12.6465 12.1672 12.6465C11.2298 12.6465 6.4072 10.08 6.40768 10.08L6.4 15.84C6.4 16.3699 6.83056 16.8 7.36096 16.8H16.9734C17.5048 16.8 17.9349 16.3699 17.9349 15.84L17.9272 10.08Z" fill="white"/>
</svg>
