<svg width="24" height="24" viewBox="0 0 24 24" fill="none" xmlns="http://www.w3.org/2000/svg">
<path fill-rule="evenodd" clip-rule="evenodd" d="M24 12C24 18.6274 18.6274 24 12 24C5.37258 24 0 18.6274 0 12C0 5.37258 5.37258 0 12 0C18.6274 0 24 5.37258 24 12ZM18.1727 12.0664C18.1727 12.5101 18.1246 12.9418 18.032 13.3588C18.2675 13.8262 18.4 14.3522 18.4 14.9094C18.4 16.8368 16.8151 18.4 14.8598 18.4C14.254 18.4 13.685 18.2494 13.1861 17.9853C12.8233 18.0513 12.45 18.0862 12.0677 18.0862C8.69614 18.0862 5.96275 15.3916 5.96275 12.0664C5.96275 11.6524 6.00564 11.2473 6.08617 10.8571C5.77761 10.3378 5.6 9.73535 5.6 9.09138C5.6 7.16244 7.18495 5.6 9.14092 5.6C9.83255 5.6 10.4783 5.7966 11.0239 6.13565C11.3641 6.07778 11.7125 6.04737 12.0677 6.04737C15.4401 6.04737 18.1727 8.74269 18.1727 12.0664Z" fill="white"/>
<path fill-rule="evenodd" clip-rule="evenodd" d="M15.1992 14.9435C14.917 15.3382 14.5001 15.6498 13.9582 15.8709C13.4231 16.0905 12.7819 16.2025 12.0512 16.2025C11.1744 16.2025 10.4391 16.0504 9.8649 15.75C9.45474 15.5318 9.11683 15.2366 8.8602 14.8701C8.60055 14.5021 8.4696 14.1363 8.4696 13.7824C8.4696 13.5628 8.5554 13.3714 8.72398 13.2149C8.89105 13.0591 9.10554 12.9812 9.36142 12.9812C9.57064 12.9812 9.75201 13.0428 9.89877 13.1652C10.0395 13.2831 10.1599 13.4575 10.257 13.6808C10.3654 13.9256 10.4828 14.1319 10.607 14.2929C10.7274 14.4502 10.8997 14.5815 11.1195 14.6846C11.3407 14.787 11.6395 14.8404 12.006 14.8404C12.511 14.8404 12.9249 14.7336 13.2357 14.5243C13.5405 14.3203 13.688 14.074 13.688 13.7728C13.688 13.5361 13.6105 13.3492 13.4525 13.2023C13.2854 13.0494 13.0664 12.9307 12.8007 12.8477C12.523 12.7631 12.1467 12.6703 11.6809 12.5739C11.0465 12.4403 10.5084 12.2823 10.0809 12.102C9.64289 11.9188 9.28992 11.6643 9.03179 11.346C8.76989 11.0218 8.63668 10.616 8.63668 10.139C8.63668 9.68493 8.77591 9.27466 9.05135 8.92152C9.32379 8.5706 9.72266 8.29609 10.2367 8.10988C10.7432 7.92514 11.3452 7.83167 12.0278 7.83167C12.5727 7.83167 13.0521 7.89398 13.4525 8.01714C13.8551 8.1403 14.1938 8.30648 14.4602 8.51199C14.7289 8.71972 14.9291 8.94006 15.054 9.17005C15.1804 9.40227 15.2451 9.633 15.2451 9.85631C15.2451 10.0715 15.1609 10.2673 14.9945 10.4372C14.8275 10.6093 14.616 10.6961 14.3676 10.6961C14.1419 10.6961 13.9642 10.6412 13.8423 10.5344C13.7279 10.4343 13.609 10.2785 13.4773 10.0559C13.3253 9.77099 13.1409 9.5462 12.9294 9.38743C12.724 9.23311 12.3816 9.15596 11.9097 9.15596C11.4732 9.15596 11.1165 9.24202 10.8523 9.4134C10.5979 9.57736 10.4737 9.76654 10.4737 9.99059C10.4737 10.1271 10.5136 10.2421 10.5964 10.34C10.6822 10.4454 10.8049 10.5359 10.9599 10.613C11.1202 10.6924 11.2858 10.7562 11.4514 10.8007C11.6207 10.8475 11.9052 10.9165 12.2958 11.0055C12.7902 11.1094 13.244 11.2273 13.6451 11.3542C14.0523 11.4818 14.403 11.6391 14.6905 11.8238C14.9825 12.0115 15.2135 12.2519 15.3784 12.5398C15.5432 12.8298 15.6267 13.186 15.6267 13.6007C15.6267 14.0963 15.4822 14.5481 15.1992 14.9435V14.9435V14.9435Z" fill="white"/>
</svg>
