<svg width="209" height="46" viewBox="0 0 209 46" fill="none" xmlns="http://www.w3.org/2000/svg">
<path d="M17.228 0.31786H24.9838L42.1483 45.454H33.121L28.9253 34.2018H13.1594L9.02723 45.454H0L17.228 0.31786ZM27.336 28.0353L21.1059 10.2987L14.6216 28.0353H27.336Z" fill="white"/>
<path d="M53.4561 45.454V0.31786H73.4177C75.4944 0.31786 77.4016 0.762865 79.1392 1.65287C80.9192 2.5005 82.445 3.6448 83.7164 5.08576C84.9879 6.48435 85.9838 8.09484 86.7043 9.91724C87.4248 11.6973 87.785 13.4985 87.785 15.3209C87.785 18.2452 87.0434 20.9152 85.56 23.3309C84.119 25.7043 82.1483 27.4207 79.6478 28.4803L89.9465 45.454H80.0928L70.8749 30.3239H62.2291V45.454H53.4561ZM62.2291 22.6316H73.227C74.0323 22.6316 74.7739 22.4409 75.4521 22.0595C76.1725 21.6781 76.7871 21.1695 77.2956 20.5338C77.8042 19.8557 78.2068 19.0716 78.5035 18.1816C78.8002 17.2916 78.9485 16.338 78.9485 15.3209C78.9485 14.2613 78.779 13.2866 78.4399 12.3965C78.1009 11.5065 77.6347 10.7437 77.0414 10.108C76.4904 9.42985 75.8335 8.92127 75.0706 8.58222C74.3501 8.20079 73.6085 8.01007 72.8456 8.01007H62.2291V22.6316Z" fill="white"/>
<path d="M102.091 45.454V0.31786H110.864V45.454H102.091Z" fill="white"/>
<path d="M153.529 12.1423C153.233 11.8456 152.682 11.443 151.877 10.9344C151.114 10.4258 150.16 9.93843 149.016 9.47223C147.914 8.96366 146.706 8.53984 145.392 8.20079C144.078 7.86174 142.743 7.69222 141.387 7.69222C138.971 7.69222 137.17 8.13722 135.984 9.02723C134.797 9.91724 134.204 11.1675 134.204 12.778C134.204 13.7104 134.415 14.4944 134.839 15.1301C135.305 15.7235 135.962 16.2532 136.81 16.7194C137.658 17.1856 138.717 17.6095 139.989 17.9909C141.302 18.3723 142.807 18.7749 144.502 19.1988C146.706 19.7921 148.698 20.4278 150.478 21.1059C152.3 21.784 153.826 22.6316 155.055 23.6488C156.327 24.6659 157.301 25.895 157.979 27.336C158.658 28.7346 158.997 30.4722 158.997 32.5489C158.997 34.9646 158.53 37.0413 157.598 38.7789C156.708 40.4742 155.479 41.8516 153.911 42.9111C152.385 43.9707 150.605 44.7547 148.571 45.2633C146.579 45.7295 144.481 45.9626 142.277 45.9626C138.887 45.9626 135.539 45.454 132.233 44.4368C128.927 43.4197 125.96 41.9787 123.333 40.114L127.211 32.5489C127.592 32.9303 128.27 33.4389 129.245 34.0746C130.262 34.6679 131.449 35.2825 132.805 35.9182C134.161 36.5115 135.666 37.0201 137.319 37.4439C138.971 37.8677 140.667 38.0796 142.404 38.0796C147.236 38.0796 149.652 36.5327 149.652 33.4389C149.652 32.4641 149.376 31.6377 148.825 30.9596C148.274 30.2815 147.49 29.6881 146.473 29.1796C145.456 28.671 144.227 28.2048 142.786 27.781C141.345 27.3572 139.734 26.891 137.954 26.3824C135.793 25.7891 133.907 25.1533 132.296 24.4752C130.728 23.7547 129.414 22.9283 128.355 21.9959C127.295 21.0212 126.49 19.9192 125.939 18.6902C125.431 17.4187 125.176 15.9142 125.176 14.1766C125.176 11.888 125.6 9.85367 126.448 8.07365C127.295 6.29363 128.461 4.81028 129.944 3.6236C131.47 2.43693 133.229 1.54692 135.221 0.953579C137.213 0.31786 139.353 0 141.641 0C144.82 0 147.744 0.508576 150.414 1.52573C153.084 2.5005 155.415 3.66599 157.407 5.02219L153.529 12.1423Z" fill="white"/>
<path d="M184.08 0.31786H191.836L209 45.454H199.973L195.777 34.2018H180.011L175.879 45.454H166.852L184.08 0.31786ZM194.188 28.0353L187.958 10.2987L181.473 28.0353H194.188Z" fill="white"/>
</svg>
