<svg width="615" height="106" viewBox="0 0 615 106" fill="none" xmlns="http://www.w3.org/2000/svg">
<path d="M1 103.96V1.72H44.344C49.048 1.72 53.368 2.728 57.304 4.744C61.336 6.664 64.792 9.256 67.672 12.52C70.552 15.688 72.808 19.336 74.44 23.464C76.072 27.496 76.888 31.576 76.888 35.704C76.888 40.024 76.12 44.248 74.584 48.376C73.048 52.408 70.888 56.008 68.104 59.176C65.32 62.344 61.96 64.888 58.024 66.808C54.088 68.728 49.768 69.688 45.064 69.688H20.872V103.96H1ZM20.872 52.264H43.912C47.56 52.264 50.584 50.776 52.984 47.8C55.48 44.824 56.728 40.792 56.728 35.704C56.728 33.112 56.344 30.808 55.576 28.792C54.808 26.68 53.8 24.904 52.552 23.464C51.304 22.024 49.816 20.968 48.088 20.296C46.456 19.528 44.776 19.144 43.048 19.144H20.872V52.264Z" stroke="white" stroke-width="2"/>
<path d="M90.7188 103.96V1.72H135.935C140.639 1.72 144.959 2.728 148.895 4.744C152.927 6.664 156.383 9.256 159.263 12.52C162.143 15.688 164.399 19.336 166.031 23.464C167.663 27.496 168.479 31.576 168.479 35.704C168.479 42.328 166.799 48.376 163.439 53.848C160.175 59.224 155.711 63.112 150.047 65.512L173.375 103.96H151.055L130.175 69.688H110.591V103.96H90.7188ZM110.591 52.264H135.503C137.327 52.264 139.007 51.832 140.543 50.968C142.175 50.104 143.567 48.952 144.719 47.512C145.871 45.976 146.783 44.2 147.455 42.184C148.127 40.168 148.463 38.008 148.463 35.704C148.463 33.304 148.079 31.096 147.311 29.08C146.543 27.064 145.487 25.336 144.143 23.896C142.895 22.36 141.407 21.208 139.679 20.44C138.047 19.576 136.367 19.144 134.639 19.144H110.591V52.264Z" stroke="white" stroke-width="2"/>
<path d="M230.116 104.68C222.628 104.68 215.812 103.24 209.668 100.36C203.62 97.384 198.388 93.496 193.972 88.696C189.652 83.8 186.292 78.232 183.892 71.992C181.492 65.752 180.292 59.368 180.292 52.84C180.292 46.024 181.54 39.496 184.036 33.256C186.628 27.016 190.132 21.496 194.548 16.696C199.06 11.896 204.388 8.104 210.532 5.32C216.676 2.44 223.348 1 230.548 1C237.94 1 244.66 2.536 250.708 5.608C256.852 8.584 262.084 12.52 266.404 17.416C270.724 22.312 274.084 27.88 276.484 34.12C278.884 40.36 280.084 46.696 280.084 53.128C280.084 59.944 278.836 66.472 276.34 72.712C273.844 78.856 270.388 84.328 265.972 89.128C261.556 93.832 256.276 97.624 250.132 100.504C243.988 103.288 237.316 104.68 230.116 104.68ZM200.452 52.84C200.452 57.256 201.124 61.528 202.468 65.656C203.812 69.784 205.732 73.432 208.228 76.6C210.82 79.768 213.94 82.312 217.588 84.232C221.332 86.152 225.556 87.112 230.26 87.112C235.06 87.112 239.284 86.152 242.932 84.232C246.676 82.216 249.796 79.576 252.292 76.312C254.884 73.048 256.804 69.4 258.052 65.368C259.396 61.24 260.068 57.064 260.068 52.84C260.068 48.424 259.348 44.152 257.908 40.024C256.564 35.896 254.596 32.248 252.004 29.08C249.508 25.912 246.388 23.416 242.644 21.592C238.996 19.672 234.868 18.712 230.26 18.712C225.46 18.712 221.188 19.72 217.444 21.736C213.7 23.656 210.58 26.248 208.084 29.512C205.588 32.68 203.668 36.328 202.324 40.456C201.076 44.488 200.452 48.616 200.452 52.84Z" stroke="white" stroke-width="2"/>
<path d="M366.32 92.44C358.16 100.6 348.656 104.68 337.808 104.68C331.088 104.68 324.752 103.336 318.8 100.648C312.944 97.96 307.808 94.264 303.392 89.56C299.072 84.856 295.616 79.336 293.024 73C290.528 66.568 289.28 59.656 289.28 52.264C289.28 45.256 290.528 38.68 293.024 32.536C295.616 26.296 299.12 20.872 303.536 16.264C308.048 11.56 313.328 7.864 319.376 5.176C325.424 2.392 332 1 339.104 1C348.704 1 356.912 3.016 363.728 7.048C370.64 11.08 375.824 16.504 379.28 23.32L364.448 34.264C361.856 29.176 358.208 25.288 353.504 22.6C348.896 19.912 343.856 18.568 338.384 18.568C334.064 18.568 330.08 19.48 326.432 21.304C322.88 23.128 319.808 25.624 317.216 28.792C314.72 31.96 312.752 35.608 311.312 39.736C309.968 43.864 309.296 48.232 309.296 52.84C309.296 57.64 310.064 62.152 311.6 66.376C313.136 70.504 315.248 74.104 317.936 77.176C320.624 80.248 323.792 82.696 327.44 84.52C331.184 86.248 335.216 87.112 339.536 87.112C349.424 87.112 358.352 82.456 366.32 73.144V65.944H345.728V51.4H382.736V103.96H366.32V92.44Z" stroke="white" stroke-width="2"/>
<path d="M399.672 103.96V1.72H444.888C449.592 1.72 453.912 2.728 457.848 4.744C461.88 6.664 465.336 9.256 468.216 12.52C471.096 15.688 473.352 19.336 474.984 23.464C476.616 27.496 477.432 31.576 477.432 35.704C477.432 42.328 475.752 48.376 472.392 53.848C469.128 59.224 464.664 63.112 459 65.512L482.328 103.96H460.008L439.128 69.688H419.544V103.96H399.672ZM419.544 52.264H444.456C446.28 52.264 447.96 51.832 449.496 50.968C451.128 50.104 452.52 48.952 453.672 47.512C454.824 45.976 455.736 44.2 456.408 42.184C457.08 40.168 457.416 38.008 457.416 35.704C457.416 33.304 457.032 31.096 456.264 29.08C455.496 27.064 454.44 25.336 453.096 23.896C451.848 22.36 450.36 21.208 448.632 20.44C447 19.576 445.32 19.144 443.592 19.144H419.544V52.264Z" stroke="white" stroke-width="2"/>
<path d="M495.438 103.96V1.72H515.31V103.96H495.438Z" stroke="white" stroke-width="2"/>
<path d="M613.105 19.144H580.417V103.96H560.689V19.144H528.001V1.72H613.105V19.144Z" stroke="white" stroke-width="2"/>
</svg>
